<?xml version="1.0" encoding="iso-8859-1"?>
<!-- Uploaded to: SVG Repo, www.svgrepo.com, Generator: SVG Repo Mixer Tools -->
<svg height="800px" width="800px" version="1.1" id="Layer_1" xmlns="http://www.w3.org/2000/svg" xmlns:xlink="http://www.w3.org/1999/xlink" 
	 viewBox="0 0 511.999 511.999" xml:space="preserve">
<polygon style="fill:#45CAE0;" points="256.812,251.762 344.6,137.09 315.702,102.157 248.034,234.204 "/>
<polygon style="fill:#0AADBF;" points="315.702,102.157 248.034,234.204 251.821,241.778 329.207,118.483 "/>
<path style="fill:#7DDAEA;" d="M485.059,260.541V146.417L344.6,137.639l-87.787,96.566l-140.459,52.672l8.779,61.451h377.485
	c2.044-16.763,2.509-42.648-8.779-70.23C491.173,271.589,488.166,265.742,485.059,260.541z"/>
<path style="fill:#D3D3D5;" d="M125.132,348.328l-96.566-52.672l-18.485,36.968c-4.337,8.673-0.821,19.219,7.851,23.555
	l107.198,53.6h359.927c9.697,0,17.557-7.86,17.557-17.557v-43.894H125.132z"/>
<path style="fill:#BDBDC0;" d="M485.059,392.221H125.132l-107.198-53.6c-3.211-1.605-5.709-4.065-7.37-6.962l-0.482,0.963
	c-4.337,8.673-0.821,19.219,7.853,23.555l107.198,53.6H485.06c9.696,0,17.557-7.861,17.557-17.557v-17.557
	C502.616,384.36,494.755,392.221,485.059,392.221z"/>
<path id="SVGCleanerId_0" style="fill:#6AD5E7;" d="M493.838,278.098c-2.663-6.509-5.672-12.355-8.779-17.557V146.417l-96.761-6.047
	L283.149,260.541l-163.195,51.535l5.178,36.252h377.485C504.66,331.565,505.125,305.68,493.838,278.098z"/>
<g>
	<path id="SVGCleanerId_0_1_" style="fill:#6AD5E7;" d="M493.838,278.098c-2.663-6.509-5.672-12.355-8.779-17.557V146.417
		l-96.761-6.047L283.149,260.541l-163.195,51.535l5.178,36.252h377.485C504.66,331.565,505.125,305.68,493.838,278.098z"/>
</g>
<polygon style="fill:#E9E9EA;" points="28.566,295.655 125.132,348.328 116.353,286.877 "/>
<polygon style="fill:#BDBDC0;" points="283.149,260.541 388.298,140.369 344.6,137.639 256.812,234.204 116.353,286.877 
	119.952,312.076 "/>
<path d="M501.454,274.981c-2.334-5.701-5.076-11.299-8.165-16.673v-111.89c0-4.345-3.379-7.943-7.717-8.214l-96.761-6.049
	l-39.996-2.499l-26.741-32.707c-3.693-4.519-11.039-3.728-13.696,1.455l-31.147,60.778l-1.269-0.72
	c-3.953-2.245-8.976-0.857-11.22,3.094c-2.244,3.954-0.858,8.977,3.095,11.22l1.88,1.067l-10.1,19.707l-2.671-1.565
	c-3.921-2.298-8.963-0.98-11.261,2.943s-0.98,8.964,2.943,11.261l3.471,2.032l-6.469,12.623l-3.16-3.113
	c-3.236-3.188-8.447-3.15-11.638,0.087c-3.19,3.238-3.15,8.448,0.087,11.638l4.165,4.104l-17.658,6.622l-4.313-6.26
	c-2.579-3.743-7.704-4.687-11.447-2.109c-3.743,2.58-4.687,7.704-2.109,11.447l1.984,2.879l-17.973,6.74l-3.026-5.238
	c-2.274-3.937-7.308-5.282-11.243-3.009c-3.936,2.274-5.283,7.308-3.009,11.243l1.654,2.862l-17.139,6.427L149.822,263
	c-1.872-4.14-6.746-5.982-10.89-4.106c-4.141,1.873-5.98,6.749-4.106,10.89l0.532,1.176l-20.891,7.834l-86.719,8.672
	c-2.764,0.251-5.306,2.036-6.542,4.508L2.72,328.943c-6.359,12.717-1.186,28.237,11.532,34.597l107.198,53.6
	c1.143,0.572,2.403,0.869,3.68,0.869h359.927c14.219,0,25.787-11.568,25.787-25.788v-43.467
	C513.945,322.617,510.792,297.799,501.454,274.981z M357.453,163.121c-2.671-1.244-4.325-1.859-4.544-1.94
	c-4.275-1.563-8.995,0.64-10.553,4.908c-1.409,3.859,0.257,8.082,3.741,10.011l-12.96,14.811l-17.049-9.676l31.942-35.137
	l23.057,1.441L357.453,163.121z M263.802,238.75l14.044-15.448l17.819,10.436l-17.106,19.55L263.802,238.75z M289.162,210.854
	l15.576-17.134l17.334,9.838L306.7,221.125L289.162,210.854z M317.291,117.104l16.503,20.186l-32.38,35.619l-9.854-5.592
	L317.291,117.104z M284.046,181.977l6.018,3.416l-15.419,16.96l-0.801-0.47L284.046,181.977z M248.007,246.296l12.844,12.655
	l-25.05,7.911l-8.753-12.706L248.007,246.296z M211.164,260.113l8.22,11.934l-20.927,6.608l-6.542-11.323L211.164,260.113z
	 M176.29,273.19l6.09,10.541l-20.283,6.405l-4.496-9.939L176.29,273.19z M146.291,295.128l-19.562,6.178l-1.292-9.045l16.721-6.27
	L146.291,295.128z M55.904,301.193l53.417-5.342l5.342,37.392L55.904,301.193z M494.386,392.221c0,5.143-4.184,9.327-9.327,9.327
	H127.074l-105.46-52.73c-4.6-2.301-6.471-7.914-4.172-12.513l14.67-29.341l89.078,48.588c1.194,0.652,2.582,1.005,3.942,1.005
	h316.034c4.546,0,8.23-3.684,8.23-8.23c0-4.546-3.684-8.23-8.23-8.23H132.269l-3.182-22.275l24.036-7.59l2.551,5.64
	c1.847,4.084,6.8,5.959,10.89,4.106c4.141-1.873,5.98-6.749,4.106-10.89l-1.74-3.848l21.885-6.911l4.004,6.93
	c2.242,3.881,7.355,5.255,11.243,3.009c3.936-2.274,5.283-7.308,3.009-11.243l-2.179-3.773l22.26-7.03l4.422,6.419
	c2.543,3.691,7.751,4.655,11.447,2.109c3.743-2.58,4.687-7.704,2.109-11.447l-1.562-2.266l28.553-9.017l6.178,6.086
	c3.195,3.148,8.492,3.107,11.638-0.087c3.19-3.238,3.15-8.448-0.087-11.638l-1.546-1.523l19.822-22.655l4.71,2.758
	c3.871,2.269,8.996,0.925,11.261-2.943c2.298-3.922,0.98-8.964-2.943-11.261l-1.992-1.166l15.524-17.742l4.948,2.808
	c3.903,2.217,9.008,0.802,11.22-3.094c2.244-3.954,0.858-8.977-3.095-11.22l-2.008-1.139l13.384-15.296
	c18.748,11.85,49.853,39.578,49.853,93.091c0,4.546,3.684,8.23,8.23,8.23c4.546,0,8.23-3.684,8.23-8.23
	c0-45.688-20.166-74.724-37.084-91.036c-6.323-6.098-12.649-10.903-18.256-14.595l19.717-22.534l85.003,5.313v106.391
	c0,1.486,0.402,2.944,1.164,4.22c3.148,5.272,5.917,10.808,8.228,16.455c7.468,18.251,10.45,38.029,8.919,58.882h-18.86
	c-4.546,0-8.23,3.684-8.23,8.23s3.684,8.23,8.23,8.23h18.106v35.666H494.386z"/>
</svg>